<svg width="64" height="64" viewBox="0 0 64 64" fill="none" xmlns="http://www.w3.org/2000/svg">
<g fill="#FFC24B">
<!-- wide light beams fanning sideways from the lantern; middle ray horizontal -->
<path d="M32 26 L53.8 18.5 L50.4 12.2 Z"/>
<path d="M32 26 L55.8 23.1 L55.8 28.9 Z"/>
<path d="M32 26 L53.3 31.7 L50.5 38 Z"/>
<path d="M32 26 L10.2 18.5 L13.6 12.2 Z"/>
<path d="M32 26 L8.2 23.1 L8.2 28.9 Z"/>
<path d="M32 26 L10.7 31.7 L13.5 38 Z"/>
<!-- finial spire -->
<path d="M31 15 L33 15 L32 11 Z"/>
<!-- roof / lantern cap -->
<path d="M25 23 L39 23 L32 15 Z"/>
<!-- lantern (light room) -->
<rect x="27" y="23" width="10" height="6"/>
<!-- gallery overhang -->
<rect x="24.5" y="29" width="15" height="2.2"/>
<!-- tower body -->
<path d="M26 31 L38 31 L41 53 L23 53 Z"/>
<!-- base platform -->
<path d="M19 53 L45 53 L47 58 L17 58 Z"/>
</g>
</svg>
